<svg width="142" height="83" viewBox="0 0 142 83" fill="none" xmlns="http://www.w3.org/2000/svg">
<path d="M99.1 53.1288H89.8972C89.4571 53.1288 89.1 53.4823 89.1 53.9177V63.2869C89.1 63.7229 89.4571 64.0768 89.8972 64.0768H99.1C99.5404 64.0768 99.9 63.7229 99.9 63.2869V53.9177C99.9 53.4823 99.5404 53.1288 99.1 53.1288ZM92.3031 62.458H90.7005V57.2335H92.3031V62.458ZM91.5018 56.5192C91.3798 56.5192 91.259 56.4948 91.1463 56.4475C91.0336 56.4001 90.9312 56.3308 90.845 56.2433C90.7588 56.1558 90.6904 56.052 90.6438 55.9377C90.5972 55.8235 90.5732 55.701 90.5733 55.5773C90.5733 55.3277 90.6711 55.0884 90.8452 54.9119C91.0193 54.7354 91.2555 54.6362 91.5017 54.6362C91.7479 54.6362 91.9841 54.7354 92.1582 54.9119C92.3323 55.0884 92.4301 55.3277 92.4301 55.5773C92.4301 55.827 92.3323 56.0665 92.1583 56.2431C91.9842 56.4197 91.7481 56.519 91.5018 56.5192V56.5192ZM98.3025 62.458H96.7024V59.9175C96.7024 59.3114 96.6907 58.5321 95.8698 58.5321C95.0361 58.5321 94.909 59.1922 94.909 59.8735V62.4582H93.3078V57.2335H94.8445V57.947H94.8664C95.0803 57.5364 95.6029 57.1032 96.3823 57.1032C98.0032 57.1032 98.3026 58.185 98.3026 59.5922V62.458H98.3025Z" fill="#616161"/>
<path fill-rule="evenodd" clip-rule="evenodd" d="M70.4997 52.8191C67.2692 52.8191 64.65 55.4743 64.65 58.7496C64.65 61.3696 66.3258 63.5924 68.6507 64.3761C68.9435 64.431 69.05 64.2484 69.05 64.0907C69.05 63.9502 69.0449 63.5775 69.0423 63.0821C67.415 63.4408 67.0716 62.287 67.0716 62.287C66.8055 61.602 66.422 61.4198 66.422 61.4198C65.8908 61.0521 66.4623 61.0593 66.4623 61.0593C67.0494 61.1014 67.3584 61.6702 67.3584 61.6702C67.8801 62.5765 68.7278 62.3142 69.0609 62.1634C69.1139 61.7794 69.2654 61.5186 69.4323 61.3701C68.1335 61.2205 66.7679 60.7117 66.7679 58.4394C66.7679 57.7917 66.9957 57.2623 67.3698 56.8476C67.31 56.6983 67.1088 56.0954 67.4273 55.2786C67.4273 55.2786 67.9184 55.1192 69.0362 55.8869C69.5025 55.7548 70.0031 55.6888 70.5006 55.6868C70.9974 55.689 71.4981 55.7548 71.9651 55.8869C73.0821 55.1192 73.5725 55.2786 73.5725 55.2786C73.8917 56.0954 73.6907 56.6983 73.6307 56.8476C74.0057 57.2623 74.2319 57.7917 74.2319 58.4394C74.2319 60.717 72.8643 61.2188 71.5611 61.3651C71.7708 61.5483 71.958 61.911 71.958 62.4643C71.958 63.2567 71.951 63.896 71.951 64.0905C71.951 64.2494 72.0561 64.4342 72.3531 64.3753C74.6754 63.59 76.35 61.3689 76.35 58.7496C76.35 55.4743 73.7309 52.8191 70.4997 52.8191V52.8191Z" fill="#616161"/>
<path d="M52.2751 54.9717C51.8426 55.1659 51.3838 55.2933 50.9141 55.3497C51.4089 55.0496 51.7791 54.5774 51.9559 54.021C51.4908 54.3009 50.9819 54.498 50.4512 54.6037C50.2295 54.364 49.9616 54.173 49.664 54.0425C49.3665 53.9121 49.0457 53.8449 48.7216 53.8453C47.413 53.8453 46.3519 54.9206 46.3519 56.2475C46.3519 56.4356 46.3729 56.6191 46.4134 56.795C44.4439 56.6948 42.6979 55.7384 41.5291 54.2849C41.3183 54.6515 41.2076 55.0683 41.2082 55.4926C41.2079 55.8881 41.304 56.2776 41.4879 56.6264C41.6718 56.9752 41.9378 57.2726 42.2624 57.492C41.8862 57.4799 41.5182 57.3769 41.1892 57.1916C41.1889 57.2016 41.1889 57.2115 41.1889 57.2218C41.1889 58.3854 42.0056 59.3562 43.0895 59.5772C42.7405 59.673 42.3746 59.687 42.0194 59.6182C42.3209 60.5724 43.196 61.2671 44.233 61.2866C43.3935 61.9544 42.357 62.3166 41.29 62.315C41.0987 62.315 40.9102 62.3037 40.7246 62.2814C41.8081 62.9871 43.0691 63.3617 44.357 63.3603C48.7157 63.3603 51.0992 59.7002 51.0992 56.5262C51.0992 56.4222 51.0968 56.3183 51.0923 56.2151C51.5565 55.8754 51.957 55.4543 52.2751 54.9717V54.9717Z" fill="#616161"/>
<path d="M22.3818 77.2383L21.8398 75.3584C21.8138 75.2998 21.778 75.2705 21.7324 75.2705H19.4814C19.4424 75.2705 19.4082 75.2965 19.3789 75.3486L18.2119 77.8291L17.2988 78.0195L17.2695 77.9219C17.862 76.9225 18.443 75.9134 19.0127 74.8945C19.5856 73.8724 20.1341 72.8405 20.6582 71.7988C20.6647 71.7793 20.668 71.7565 20.668 71.7305C20.668 71.7174 20.6598 71.6979 20.6436 71.6719C20.6273 71.6426 20.5964 71.6247 20.5508 71.6182L19.6523 71.4717V71.1982H21.5908C21.6429 71.4717 21.721 71.8167 21.8252 72.2334C21.9294 72.6501 22.0449 73.0879 22.1719 73.5469C22.2988 74.0026 22.4144 74.4307 22.5186 74.8311C22.6325 75.238 22.7578 75.6611 22.8945 76.1006C23.0312 76.54 23.1891 76.9095 23.3682 77.209C23.4333 77.3164 23.5228 77.3945 23.6367 77.4434C23.7539 77.4889 23.8776 77.5117 24.0078 77.5117C24.0827 77.5117 24.1559 77.5085 24.2275 77.502C24.3024 77.4954 24.374 77.4889 24.4424 77.4824L24.4521 77.7412L23.4121 78.0391C23.2656 78.0781 23.1143 78.0977 22.958 78.0977C22.792 78.0977 22.6683 78.0098 22.5869 77.834C22.5088 77.6582 22.4404 77.4596 22.3818 77.2383ZM20.8389 72.2822L19.6816 74.7188C19.6751 74.7253 19.6719 74.7415 19.6719 74.7676C19.6719 74.7904 19.6719 74.805 19.6719 74.8115C19.6719 74.8571 19.6947 74.8799 19.7402 74.8799H21.6201C21.6657 74.8799 21.6885 74.8571 21.6885 74.8115C21.6885 74.8115 21.6852 74.7969 21.6787 74.7676C21.6722 74.7415 21.6689 74.7253 21.6689 74.7188L20.9707 72.2822C20.9577 72.2562 20.9349 72.2415 20.9023 72.2383C20.86 72.2415 20.8389 72.2562 20.8389 72.2822ZM27.3477 76.8818H27.4551L27.5674 76.999C27.4535 77.1715 27.32 77.3457 27.167 77.5215C27.014 77.694 26.8431 77.8356 26.6543 77.9463C26.4688 78.057 26.2669 78.1123 26.0488 78.1123C25.8828 78.1123 25.738 78.0732 25.6143 77.9951C25.4906 77.917 25.3945 77.777 25.3262 77.5752C25.2611 77.3701 25.2285 77.0788 25.2285 76.7012L25.2969 72.9219C25.2969 72.7559 25.2952 72.5785 25.292 72.3896C25.2887 72.1976 25.2741 72.0413 25.248 71.9209C25.2285 71.8135 25.1683 71.7419 25.0674 71.7061C24.9665 71.6702 24.8525 71.6491 24.7256 71.6426C24.5986 71.6328 24.4831 71.6247 24.3789 71.6182V71.3887L24.4375 71.3398L26.0879 71.1396L26.1465 71.208C26.127 71.9079 26.0977 72.6094 26.0586 73.3125C26.0228 74.0124 26.0049 74.7122 26.0049 75.4121C26.0049 75.7376 26.0033 76.0469 26 76.3398C25.9967 76.6328 26.026 76.8721 26.0879 77.0576C26.153 77.2399 26.2865 77.3376 26.4883 77.3506C26.6543 77.3506 26.8073 77.3001 26.9473 77.1992C27.0872 77.0951 27.2207 76.9893 27.3477 76.8818ZM30.3555 76.8818H30.4629L30.5752 76.999C30.4613 77.1715 30.3278 77.3457 30.1748 77.5215C30.0218 77.694 29.8509 77.8356 29.6621 77.9463C29.4766 78.057 29.2747 78.1123 29.0566 78.1123C28.8906 78.1123 28.7458 78.0732 28.6221 77.9951C28.4984 77.917 28.4023 77.777 28.334 77.5752C28.2689 77.3701 28.2363 77.0788 28.2363 76.7012L28.3047 72.9219C28.3047 72.7559 28.3031 72.5785 28.2998 72.3896C28.2965 72.1976 28.2819 72.0413 28.2559 71.9209C28.2363 71.8135 28.1761 71.7419 28.0752 71.7061C27.9743 71.6702 27.8604 71.6491 27.7334 71.6426C27.6064 71.6328 27.4909 71.6247 27.3867 71.6182V71.3887L27.4453 71.3398L29.0957 71.1396L29.1543 71.208C29.1348 71.9079 29.1055 72.6094 29.0664 73.3125C29.0306 74.0124 29.0127 74.7122 29.0127 75.4121C29.0127 75.7376 29.0111 76.0469 29.0078 76.3398C29.0046 76.6328 29.0339 76.8721 29.0957 77.0576C29.1608 77.2399 29.2943 77.3376 29.4961 77.3506C29.6621 77.3506 29.8151 77.3001 29.9551 77.1992C30.0951 77.0951 30.2285 76.9893 30.3555 76.8818ZM36.5518 74.6895L36.5322 74.7676L39.1641 77.7314V77.8193L38.1729 78.0781C37.9385 77.7786 37.6911 77.4645 37.4307 77.1357C37.1735 76.8037 36.9261 76.4863 36.6885 76.1836C36.4508 75.8809 36.2425 75.6221 36.0635 75.4072C35.8844 75.1891 35.7575 75.0426 35.6826 74.9678C35.624 74.9092 35.5573 74.8799 35.4824 74.8799C35.4824 75.3584 35.484 75.8402 35.4873 76.3252C35.4906 76.807 35.5052 77.2887 35.5312 77.7705L34.7012 78.0586L34.5938 77.9707C34.6328 77.2448 34.6572 76.5189 34.667 75.793C34.6768 75.0638 34.6816 74.3363 34.6816 73.6104C34.6816 73.5713 34.68 73.4883 34.6768 73.3613C34.6735 73.2344 34.6702 73.0846 34.667 72.9121C34.6637 72.7363 34.6605 72.5573 34.6572 72.375C34.654 72.1927 34.6523 72.0316 34.6523 71.8916C34.6523 71.7842 34.5938 71.6979 34.4766 71.6328C34.3594 71.5645 34.2389 71.5156 34.1152 71.4863C33.9948 71.457 33.9167 71.4424 33.8809 71.4424L33.8906 71.2715L33.9541 71.208H36.6738C37.2858 71.208 37.7773 71.3252 38.1484 71.5596C38.5195 71.7939 38.7051 72.1439 38.7051 72.6094C38.7051 73.0684 38.6074 73.446 38.4121 73.7422C38.2201 74.0352 37.9613 74.2549 37.6357 74.4014C37.3135 74.5479 36.9521 74.6439 36.5518 74.6895ZM35.4727 74.2988C35.4727 74.3249 35.4792 74.3574 35.4922 74.3965C35.5052 74.4323 35.528 74.4502 35.5605 74.4502C35.9284 74.4502 36.2767 74.3932 36.6055 74.2793C36.9375 74.1654 37.2061 73.9847 37.4111 73.7373C37.6195 73.4867 37.7236 73.1644 37.7236 72.7705C37.7236 72.4515 37.6374 72.2074 37.4648 72.0381C37.2956 71.8656 37.0824 71.75 36.8252 71.6914C36.5713 71.6296 36.3141 71.5986 36.0537 71.5986H35.6533C35.5785 71.5986 35.5378 71.6865 35.5312 71.8623C35.5247 71.9893 35.5199 72.152 35.5166 72.3506C35.5133 72.5492 35.5085 72.7591 35.502 72.9805C35.4954 73.1986 35.4906 73.4069 35.4873 73.6055C35.484 73.8008 35.4808 73.9619 35.4775 74.0889C35.4743 74.2158 35.4727 74.2858 35.4727 74.2988ZM41.3418 71.75C41.3353 71.916 41.2734 72.0511 41.1562 72.1553C41.0391 72.2594 40.9007 72.3115 40.7412 72.3115C40.5817 72.3115 40.445 72.2546 40.3311 72.1406C40.2171 72.0267 40.1602 71.89 40.1602 71.7305C40.1602 71.5579 40.2301 71.4212 40.3701 71.3203C40.5101 71.2194 40.6533 71.1689 40.7998 71.1689C40.9723 71.1689 41.1058 71.2275 41.2002 71.3447C41.2946 71.4619 41.3418 71.597 41.3418 71.75ZM41.2002 74.0791L41.1221 76.1787C41.1221 76.5465 41.1514 76.8346 41.21 77.043C41.2718 77.248 41.389 77.3506 41.5615 77.3506C41.7536 77.3506 41.9212 77.3066 42.0645 77.2188C42.2077 77.1276 42.346 77.0218 42.4795 76.9014L42.6113 76.999V77.1113C42.4974 77.2578 42.3656 77.4059 42.2158 77.5557C42.0661 77.7054 41.9066 77.8307 41.7373 77.9316C41.568 78.0293 41.389 78.0781 41.2002 78.0781C41.0602 78.0781 40.9284 78.0537 40.8047 78.0049C40.681 77.9561 40.5817 77.8519 40.5068 77.6924C40.4352 77.5296 40.3994 77.2855 40.3994 76.96L40.4629 74.748C40.4629 74.4876 40.4368 74.2809 40.3848 74.1279C40.3359 73.9749 40.2448 73.8984 40.1113 73.8984C40.0039 73.8984 39.8737 73.9342 39.7207 74.0059C39.5677 74.0742 39.431 74.1458 39.3105 74.2207L39.1836 74.04C39.4115 73.861 39.6523 73.6917 39.9062 73.5322C40.1634 73.3695 40.388 73.2881 40.5801 73.2881C40.8079 73.2881 40.9674 73.3646 41.0586 73.5176C41.153 73.6706 41.2002 73.8577 41.2002 74.0791ZM46.0732 77.4824C45.8128 77.6289 45.541 77.7705 45.2578 77.9072C44.9746 78.0439 44.6768 78.1123 44.3643 78.1123C44.0908 78.1123 43.8434 78.0309 43.6221 77.8682C43.404 77.7021 43.2314 77.4727 43.1045 77.1797C42.9775 76.8867 42.9141 76.5465 42.9141 76.1592C42.9141 75.5667 43.015 75.0605 43.2168 74.6406C43.4219 74.2207 43.6969 73.9017 44.042 73.6836C44.3903 73.4622 44.7777 73.3516 45.2041 73.3516C45.4092 73.3516 45.6126 73.376 45.8145 73.4248C46.0195 73.4736 46.2067 73.5615 46.376 73.6885L46.8838 73.4004L47.0254 73.459C47.0124 73.6868 46.9993 73.9131 46.9863 74.1377C46.9766 74.359 46.9668 74.6064 46.957 74.8799C46.9473 75.1533 46.9408 75.4756 46.9375 75.8467C46.9342 76.2145 46.9326 76.6589 46.9326 77.1797C46.9326 77.3717 46.9212 77.6273 46.8984 77.9463C46.8757 78.262 46.8138 78.5664 46.7129 78.8594C46.6315 79.0807 46.5143 79.2728 46.3613 79.4355C46.2083 79.5983 46.083 79.7171 45.9854 79.792C45.7314 79.984 45.4743 80.1208 45.2139 80.2021C44.9535 80.2868 44.6702 80.3291 44.3643 80.3291C44.1429 80.3291 43.9183 80.2917 43.6904 80.2168C43.4658 80.1452 43.2298 79.9954 42.9824 79.7676L43.4756 79.1523H43.6123C43.6709 79.2728 43.7572 79.39 43.8711 79.5039C43.985 79.6211 44.1071 79.7188 44.2373 79.7969C44.3675 79.8783 44.4928 79.9189 44.6133 79.9189C44.9681 79.9189 45.2562 79.8115 45.4775 79.5967C45.7021 79.3851 45.8682 79.0986 45.9756 78.7373C46.0863 78.3792 46.1497 77.9837 46.166 77.5508L46.0732 77.4824ZM46.166 77.0088V74.3721C46.153 74.1377 46.0537 73.9652 45.8682 73.8545C45.6859 73.7438 45.4873 73.6885 45.2725 73.6885C44.9795 73.6885 44.7354 73.7633 44.54 73.9131C44.348 74.0628 44.195 74.2565 44.0811 74.4941C43.9704 74.7318 43.8906 74.9808 43.8418 75.2412C43.7962 75.5016 43.7734 75.7441 43.7734 75.9688C43.7734 76.2682 43.8337 76.5319 43.9541 76.7598C44.0745 76.9876 44.2227 77.165 44.3984 77.292C44.5742 77.4189 44.7467 77.4824 44.916 77.4824C45.069 77.4824 45.2269 77.4564 45.3896 77.4043C45.5524 77.349 45.7038 77.2839 45.8438 77.209C45.9837 77.1341 46.0911 77.0674 46.166 77.0088ZM53.5098 76.9307L53.6416 77.0283V77.1406C53.4202 77.375 53.1777 77.5931 52.9141 77.7949C52.6536 77.9967 52.3721 78.0977 52.0693 78.0977C51.835 78.0977 51.6657 77.9951 51.5615 77.79C51.4606 77.585 51.4102 77.3587 51.4102 77.1113C51.4102 76.9323 51.4134 76.7272 51.4199 76.4961C51.4264 76.265 51.4329 76.0452 51.4395 75.8369C51.446 75.6253 51.4492 75.4593 51.4492 75.3389C51.4492 75.085 51.4297 74.8538 51.3906 74.6455C51.3516 74.4339 51.2702 74.2679 51.1465 74.1475C51.0228 74.0238 50.8372 73.9619 50.5898 73.9619C50.3164 73.9619 50.0592 74.027 49.8184 74.1572C49.5807 74.2842 49.3643 74.4176 49.1689 74.5576C49.1689 75.1045 49.1657 75.653 49.1592 76.2031C49.1527 76.7533 49.1494 77.2985 49.1494 77.8389L48.4316 78.0586L48.373 77.9609C48.4056 77.3001 48.4349 76.641 48.4609 75.9834C48.487 75.3226 48.5033 74.6618 48.5098 74.001C48.5098 73.4932 48.5098 73.0521 48.5098 72.6777C48.5098 72.3001 48.443 72.0202 48.3096 71.8379C48.264 71.7793 48.1582 71.7288 47.9922 71.6865C47.8262 71.641 47.6764 71.6051 47.543 71.5791V71.3984L47.5918 71.3594L49.1689 71.1885L49.2324 71.2617C49.2129 71.6882 49.2015 72.1406 49.1982 72.6191C49.195 73.0944 49.1934 73.5615 49.1934 74.0205L49.2715 74.0986C49.5645 73.9196 49.8802 73.7487 50.2188 73.5859C50.5605 73.4232 50.9154 73.3418 51.2832 73.3418C51.3581 73.3418 51.4606 73.3646 51.5908 73.4102C51.7243 73.4557 51.8382 73.5257 51.9326 73.6201C52.0856 73.7601 52.1637 73.9928 52.167 74.3184C52.1702 74.6406 52.1719 75.002 52.1719 75.4023V76.1396C52.1719 76.2406 52.1702 76.361 52.167 76.501C52.1637 76.641 52.1719 76.7777 52.1914 76.9111C52.2109 77.0446 52.2516 77.1569 52.3135 77.248C52.3786 77.3359 52.4779 77.3799 52.6113 77.3799C52.8034 77.3799 52.9775 77.3278 53.1338 77.2236C53.29 77.1162 53.4154 77.0186 53.5098 76.9307ZM54.75 72.1797L55.5898 71.8916L55.6582 71.9404C55.6322 72.2269 55.6094 72.502 55.5898 72.7656C55.5703 73.0293 55.5573 73.3076 55.5508 73.6006L55.6094 73.6494H56.8887L56.9375 73.6885L56.8594 73.9521L56.8008 74.001H55.6094L55.5508 74.0596V75.9492C55.5508 76.1836 55.5654 76.418 55.5947 76.6523C55.624 76.8835 55.6908 77.0739 55.7949 77.2236C55.8991 77.3734 56.0537 77.4482 56.2588 77.4482C56.3857 77.4482 56.5322 77.4043 56.6982 77.3164C56.8643 77.2253 57.0205 77.1325 57.167 77.0381L57.2891 77.0576L57.3574 77.209C57.1296 77.4238 56.8724 77.624 56.5859 77.8096C56.3027 77.9951 56.013 78.0879 55.7168 78.0879C55.6029 78.0879 55.4775 78.0667 55.3408 78.0244C55.2074 77.9821 55.0934 77.9007 54.999 77.7803C54.9339 77.6859 54.8835 77.5866 54.8477 77.4824C54.8151 77.375 54.7939 77.2074 54.7842 76.9795C54.7744 76.7516 54.7695 76.4147 54.7695 75.9688V74.0693L54.7109 74.001H53.5879L53.5391 73.9521L53.6074 73.708L53.6709 73.6494H54.7109L54.7695 73.5908C54.7695 73.3369 54.7695 73.07 54.7695 72.79C54.7695 72.5101 54.763 72.3066 54.75 72.1797ZM63.4658 74.6895L63.4463 74.7676L66.0781 77.7314V77.8193L65.0869 78.0781C64.8525 77.7786 64.6051 77.4645 64.3447 77.1357C64.0876 76.8037 63.8402 76.4863 63.6025 76.1836C63.3649 75.8809 63.1566 75.6221 62.9775 75.4072C62.7985 75.1891 62.6715 75.0426 62.5967 74.9678C62.5381 74.9092 62.4714 74.8799 62.3965 74.8799C62.3965 75.3584 62.3981 75.8402 62.4014 76.3252C62.4046 76.807 62.4193 77.2887 62.4453 77.7705L61.6152 78.0586L61.5078 77.9707C61.5469 77.2448 61.5713 76.5189 61.5811 75.793C61.5908 75.0638 61.5957 74.3363 61.5957 73.6104C61.5957 73.5713 61.5941 73.4883 61.5908 73.3613C61.5876 73.2344 61.5843 73.0846 61.5811 72.9121C61.5778 72.7363 61.5745 72.5573 61.5713 72.375C61.568 72.1927 61.5664 72.0316 61.5664 71.8916C61.5664 71.7842 61.5078 71.6979 61.3906 71.6328C61.2734 71.5645 61.153 71.5156 61.0293 71.4863C60.9089 71.457 60.8307 71.4424 60.7949 71.4424L60.8047 71.2715L60.8682 71.208H63.5879C64.1999 71.208 64.6914 71.3252 65.0625 71.5596C65.4336 71.7939 65.6191 72.1439 65.6191 72.6094C65.6191 73.0684 65.5215 73.446 65.3262 73.7422C65.1341 74.0352 64.8753 74.2549 64.5498 74.4014C64.2275 74.5479 63.8662 74.6439 63.4658 74.6895ZM62.3867 74.2988C62.3867 74.3249 62.3932 74.3574 62.4062 74.3965C62.4193 74.4323 62.4421 74.4502 62.4746 74.4502C62.8424 74.4502 63.1908 74.3932 63.5195 74.2793C63.8516 74.1654 64.1201 73.9847 64.3252 73.7373C64.5335 73.4867 64.6377 73.1644 64.6377 72.7705C64.6377 72.4515 64.5514 72.2074 64.3789 72.0381C64.2096 71.8656 63.9964 71.75 63.7393 71.6914C63.4854 71.6296 63.2282 71.5986 62.9678 71.5986H62.5674C62.4925 71.5986 62.4518 71.6865 62.4453 71.8623C62.4388 71.9893 62.4339 72.152 62.4307 72.3506C62.4274 72.5492 62.4225 72.7591 62.416 72.9805C62.4095 73.1986 62.4046 73.4069 62.4014 73.6055C62.3981 73.8008 62.3949 73.9619 62.3916 74.0889C62.3883 74.2158 62.3867 74.2858 62.3867 74.2988ZM70.3652 74.8115L67.543 76.0322C67.5625 76.2373 67.6178 76.4505 67.709 76.6719C67.8001 76.89 67.9368 77.0723 68.1191 77.2188C68.3047 77.3652 68.5439 77.4385 68.8369 77.4385C69.1104 77.4385 69.3773 77.3685 69.6377 77.2285C69.9014 77.0885 70.1471 76.9323 70.375 76.7598L70.4873 76.7793L70.6143 76.96C70.4092 77.152 70.1846 77.3376 69.9404 77.5166C69.6963 77.6924 69.4391 77.8372 69.1689 77.9512C68.8988 78.0651 68.6204 78.1221 68.334 78.1221C68.002 78.1221 67.7269 78.0521 67.5088 77.9121C67.2939 77.7721 67.1263 77.5866 67.0059 77.3555C66.8854 77.1243 66.7992 76.8672 66.7471 76.584C66.6982 76.3008 66.6738 76.0192 66.6738 75.7393C66.6738 75.4463 66.7096 75.1598 66.7812 74.8799C66.8561 74.5999 66.9912 74.346 67.1865 74.1182C67.4339 73.8317 67.7285 73.6104 68.0703 73.4541C68.4121 73.2979 68.7734 73.2197 69.1543 73.2197C69.5872 73.2197 69.9323 73.3532 70.1895 73.6201C70.4466 73.887 70.5752 74.2142 70.5752 74.6016C70.5752 74.6602 70.5524 74.7041 70.5068 74.7334C70.4645 74.7594 70.4173 74.7855 70.3652 74.8115ZM67.9629 74.04C67.7708 74.2451 67.6455 74.4616 67.5869 74.6895C67.5316 74.9173 67.5039 75.1549 67.5039 75.4023C67.5039 75.4284 67.5055 75.4561 67.5088 75.4854C67.512 75.5146 67.5169 75.5456 67.5234 75.5781L67.5674 75.6221L69.584 74.8213C69.6165 74.8083 69.6458 74.7822 69.6719 74.7432C69.7012 74.7008 69.7158 74.639 69.7158 74.5576C69.7158 74.4176 69.6784 74.2744 69.6035 74.1279C69.5319 73.9814 69.4277 73.861 69.291 73.7666C69.1543 73.6689 68.9932 73.6201 68.8076 73.6201C68.6416 73.6201 68.4854 73.6576 68.3389 73.7324C68.1956 73.804 68.0703 73.9066 67.9629 74.04ZM74.2324 74.1719L73.6855 74.5381L73.5635 74.4697C73.5505 74.2484 73.4951 74.0628 73.3975 73.9131C73.3031 73.7633 73.1419 73.6885 72.9141 73.6885C72.6797 73.6885 72.4844 73.7666 72.3281 73.9229C72.1719 74.0758 72.0938 74.2679 72.0938 74.499C72.0938 74.6976 72.1849 74.8701 72.3672 75.0166C72.5527 75.1598 72.8278 75.3079 73.1924 75.4609C73.5798 75.627 73.8678 75.8044 74.0566 75.9932C74.2487 76.1787 74.3447 76.387 74.3447 76.6182C74.3447 76.9567 74.2487 77.2415 74.0566 77.4727C73.8678 77.7038 73.6286 77.8779 73.3389 77.9951C73.0492 78.1123 72.7578 78.1709 72.4648 78.1709C72.1654 78.1709 71.887 78.1107 71.6299 77.9902C71.3727 77.8698 71.1611 77.6533 70.9951 77.3408L71.4834 76.6279L71.625 76.6377C71.6445 76.9437 71.7601 77.2122 71.9717 77.4434C72.1865 77.6745 72.4502 77.79 72.7627 77.79C72.9775 77.79 73.1729 77.7152 73.3486 77.5654C73.5244 77.4157 73.6123 77.2367 73.6123 77.0283C73.6123 76.8558 73.5618 76.7093 73.4609 76.5889C73.3633 76.4684 73.2396 76.3659 73.0898 76.2812C72.9401 76.1934 72.7855 76.1169 72.626 76.0518C72.4209 75.9639 72.2207 75.863 72.0254 75.749C71.8301 75.6351 71.6722 75.4984 71.5518 75.3389C71.4346 75.1794 71.376 74.9889 71.376 74.7676C71.376 74.4681 71.4622 74.2126 71.6348 74.001C71.8073 73.7861 72.027 73.6234 72.2939 73.5127C72.5609 73.3988 72.8311 73.3418 73.1045 73.3418C73.277 73.3418 73.4479 73.3678 73.6172 73.4199C73.7897 73.472 73.9329 73.5599 74.0469 73.6836C74.1641 73.804 74.2259 73.9668 74.2324 74.1719ZM78.7734 74.8115L75.9512 76.0322C75.9707 76.2373 76.026 76.4505 76.1172 76.6719C76.2083 76.89 76.3451 77.0723 76.5273 77.2188C76.7129 77.3652 76.9521 77.4385 77.2451 77.4385C77.5186 77.4385 77.7855 77.3685 78.0459 77.2285C78.3096 77.0885 78.5553 76.9323 78.7832 76.7598L78.8955 76.7793L79.0225 76.96C78.8174 77.152 78.5928 77.3376 78.3486 77.5166C78.1045 77.6924 77.8473 77.8372 77.5771 77.9512C77.307 78.0651 77.0286 78.1221 76.7422 78.1221C76.4102 78.1221 76.1351 78.0521 75.917 77.9121C75.7021 77.7721 75.5345 77.5866 75.4141 77.3555C75.2936 77.1243 75.2074 76.8672 75.1553 76.584C75.1064 76.3008 75.082 76.0192 75.082 75.7393C75.082 75.4463 75.1178 75.1598 75.1895 74.8799C75.2643 74.5999 75.3994 74.346 75.5947 74.1182C75.8421 73.8317 76.1367 73.6104 76.4785 73.4541C76.8203 73.2979 77.1816 73.2197 77.5625 73.2197C77.9954 73.2197 78.3405 73.3532 78.5977 73.6201C78.8548 73.887 78.9834 74.2142 78.9834 74.6016C78.9834 74.6602 78.9606 74.7041 78.915 74.7334C78.8727 74.7594 78.8255 74.7855 78.7734 74.8115ZM76.3711 74.04C76.179 74.2451 76.0537 74.4616 75.9951 74.6895C75.9398 74.9173 75.9121 75.1549 75.9121 75.4023C75.9121 75.4284 75.9137 75.4561 75.917 75.4854C75.9202 75.5146 75.9251 75.5456 75.9316 75.5781L75.9756 75.6221L77.9922 74.8213C78.0247 74.8083 78.054 74.7822 78.0801 74.7432C78.1094 74.7008 78.124 74.639 78.124 74.5576C78.124 74.4176 78.0866 74.2744 78.0117 74.1279C77.9401 73.9814 77.8359 73.861 77.6992 73.7666C77.5625 73.6689 77.4014 73.6201 77.2158 73.6201C77.0498 73.6201 76.8936 73.6576 76.7471 73.7324C76.6038 73.804 76.4785 73.9066 76.3711 74.04ZM82.7432 74.6113L82.6211 74.5576C82.5951 74.4176 82.5413 74.2874 82.46 74.167C82.3818 74.0433 82.2598 73.9814 82.0938 73.9814C81.8887 73.9814 81.721 74.0514 81.5908 74.1914C81.4639 74.3314 81.3743 74.4681 81.3223 74.6016C81.2767 74.709 81.2507 74.862 81.2441 75.0605C81.2376 75.2591 81.2376 75.4707 81.2441 75.6953C81.2507 75.9199 81.2539 76.1217 81.2539 76.3008C81.2539 76.8021 81.2637 77.3083 81.2832 77.8193L80.585 78.0293L80.4336 77.9414C80.4661 77.5866 80.4938 77.2025 80.5166 76.7891C80.5394 76.3757 80.5508 75.9688 80.5508 75.5684C80.5508 75.3079 80.5475 75.0492 80.541 74.792C80.5345 74.5316 80.5003 74.3151 80.4385 74.1426C80.3799 73.9668 80.2741 73.8789 80.1211 73.8789C80.0072 73.8789 79.8802 73.9131 79.7402 73.9814C79.6003 74.0465 79.4684 74.1165 79.3447 74.1914L79.2227 74.0205C79.3561 73.9131 79.501 73.8024 79.6572 73.6885C79.8135 73.5745 79.9714 73.4769 80.1309 73.3955C80.2936 73.3109 80.4401 73.2686 80.5703 73.2686C80.7982 73.2686 80.9691 73.3353 81.083 73.4688C81.1969 73.6022 81.2669 73.7764 81.293 73.9912L81.3906 74.0303C81.4915 73.9359 81.6038 73.835 81.7275 73.7275C81.8512 73.6169 81.9798 73.5241 82.1133 73.4492C82.2467 73.3711 82.3737 73.332 82.4941 73.332C82.9661 73.332 83.2282 73.5941 83.2803 74.1182L82.7432 74.6113ZM87.5137 73.4004C87.5332 73.3874 87.5592 73.3809 87.5918 73.3809C87.6862 73.3809 87.7855 73.4753 87.8896 73.6641C87.9971 73.8496 88.0508 74.0889 88.0508 74.3818C88.0508 74.6553 87.9938 74.9173 87.8799 75.168C87.7692 75.4154 87.6439 75.653 87.5039 75.8809C87.276 76.2422 87.027 76.5824 86.7568 76.9014C86.4867 77.2204 86.2051 77.5296 85.9121 77.8291C85.86 77.8812 85.8031 77.9382 85.7412 78C85.6826 78.0586 85.6403 78.096 85.6143 78.1123H85.375L84.6816 75.5293C84.6068 75.2428 84.5286 74.9792 84.4473 74.7383C84.3659 74.4941 84.2812 74.2972 84.1934 74.1475C84.1055 73.9945 84.0078 73.918 83.9004 73.918C83.793 73.918 83.6888 73.9375 83.5879 73.9766C83.4902 74.0124 83.3844 74.0628 83.2705 74.1279L83.1826 73.8887C83.3617 73.7617 83.5667 73.6331 83.7979 73.5029C84.029 73.3727 84.2406 73.3076 84.4326 73.3076C84.6051 73.3076 84.7419 73.3809 84.8428 73.5273C84.9437 73.6706 85.0316 73.874 85.1064 74.1377C85.1846 74.3981 85.2708 74.709 85.3652 75.0703C85.4043 75.2168 85.4499 75.4089 85.502 75.6465C85.5573 75.8809 85.6159 76.1152 85.6777 76.3496C85.7396 76.584 85.8014 76.7809 85.8633 76.9404C85.9284 77.0999 85.9886 77.1797 86.0439 77.1797C86.07 77.1797 86.1058 77.1536 86.1514 77.1016C86.2002 77.0462 86.2441 76.999 86.2832 76.96C86.4492 76.7614 86.6136 76.5465 86.7764 76.3154C86.9391 76.0843 87.0758 75.8467 87.1865 75.6025C87.2972 75.3551 87.3525 75.1143 87.3525 74.8799C87.3525 74.7204 87.3118 74.5544 87.2305 74.3818C87.1523 74.2061 87.0693 74.0384 86.9814 73.8789C86.9749 73.8724 86.9717 73.8561 86.9717 73.8301C86.9717 73.804 86.9847 73.778 87.0107 73.752L87.5137 73.4004ZM92.4844 74.8115L89.6621 76.0322C89.6816 76.2373 89.737 76.4505 89.8281 76.6719C89.9193 76.89 90.056 77.0723 90.2383 77.2188C90.4238 77.3652 90.6631 77.4385 90.9561 77.4385C91.2295 77.4385 91.4964 77.3685 91.7568 77.2285C92.0205 77.0885 92.2663 76.9323 92.4941 76.7598L92.6064 76.7793L92.7334 76.96C92.5283 77.152 92.3037 77.3376 92.0596 77.5166C91.8154 77.6924 91.5583 77.8372 91.2881 77.9512C91.0179 78.0651 90.7396 78.1221 90.4531 78.1221C90.1211 78.1221 89.846 78.0521 89.6279 77.9121C89.4131 77.7721 89.2454 77.5866 89.125 77.3555C89.0046 77.1243 88.9183 76.8672 88.8662 76.584C88.8174 76.3008 88.793 76.0192 88.793 75.7393C88.793 75.4463 88.8288 75.1598 88.9004 74.8799C88.9753 74.5999 89.1104 74.346 89.3057 74.1182C89.5531 73.8317 89.8477 73.6104 90.1895 73.4541C90.5312 73.2979 90.8926 73.2197 91.2734 73.2197C91.7064 73.2197 92.0514 73.3532 92.3086 73.6201C92.5658 73.887 92.6943 74.2142 92.6943 74.6016C92.6943 74.6602 92.6715 74.7041 92.626 74.7334C92.5837 74.7594 92.5365 74.7855 92.4844 74.8115ZM90.082 74.04C89.89 74.2451 89.7646 74.4616 89.7061 74.6895C89.6507 74.9173 89.623 75.1549 89.623 75.4023C89.623 75.4284 89.6247 75.4561 89.6279 75.4854C89.6312 75.5146 89.6361 75.5456 89.6426 75.5781L89.6865 75.6221L91.7031 74.8213C91.7357 74.8083 91.765 74.7822 91.791 74.7432C91.8203 74.7008 91.835 74.639 91.835 74.5576C91.835 74.4176 91.7975 74.2744 91.7227 74.1279C91.651 73.9814 91.5469 73.861 91.4102 73.7666C91.2734 73.6689 91.1123 73.6201 90.9268 73.6201C90.7607 73.6201 90.6045 73.6576 90.458 73.7324C90.3148 73.804 90.1895 73.9066 90.082 74.04ZM95.6143 71.3984L95.6631 71.3594L97.2939 71.1592L97.3721 71.252V76.9014C97.3851 77.0479 97.4144 77.1878 97.46 77.3213C97.5088 77.4548 97.6064 77.5215 97.7529 77.5215C97.805 77.5215 97.8945 77.5003 98.0215 77.458C98.1484 77.4124 98.2624 77.3701 98.3633 77.3311L98.4414 77.5605C98.2493 77.694 98.0345 77.8324 97.7969 77.9756C97.5625 78.1188 97.3477 78.1904 97.1523 78.1904C96.9603 78.1904 96.8171 78.1123 96.7227 77.9561C96.6315 77.7998 96.5778 77.6338 96.5615 77.458C96.3076 77.6305 96.0277 77.7949 95.7217 77.9512C95.4157 78.1042 95.1162 78.1807 94.8232 78.1807C94.5368 78.1807 94.2975 78.1204 94.1055 78C93.9167 77.8796 93.7653 77.7217 93.6514 77.5264C93.5407 77.3278 93.4593 77.113 93.4072 76.8818C93.3584 76.6475 93.334 76.4196 93.334 76.1982C93.334 75.8434 93.3812 75.5 93.4756 75.168C93.5732 74.8359 93.7181 74.5348 93.9102 74.2646C94.1055 73.9945 94.3512 73.7796 94.6475 73.6201C94.9437 73.4606 95.2952 73.3809 95.7021 73.3809C95.8486 73.3809 95.9902 73.3939 96.127 73.4199C96.2637 73.446 96.3988 73.4834 96.5322 73.5322L96.6055 73.4883C96.6055 73.3092 96.6038 73.1204 96.6006 72.9219C96.5973 72.7201 96.5908 72.5345 96.5811 72.3652C96.5745 72.196 96.5583 72.0674 96.5322 71.9795C96.4997 71.859 96.4313 71.7744 96.3271 71.7256C96.2262 71.6768 96.1123 71.6475 95.9854 71.6377C95.8584 71.6247 95.738 71.6182 95.624 71.6182L95.6143 71.3984ZM96.5615 77.0479L96.6055 74.8994C96.6055 74.7204 96.5843 74.5397 96.542 74.3574C96.5029 74.1719 96.4167 74.0189 96.2832 73.8984C96.1497 73.778 95.943 73.7178 95.6631 73.7178C95.3831 73.7178 95.1488 73.791 94.96 73.9375C94.7744 74.0807 94.6247 74.2663 94.5107 74.4941C94.4001 74.7188 94.3203 74.9629 94.2715 75.2266C94.2259 75.4902 94.2031 75.7376 94.2031 75.9688C94.2031 76.2031 94.2389 76.4408 94.3105 76.6816C94.3854 76.9193 94.5075 77.1195 94.6768 77.2822C94.8493 77.4417 95.0853 77.5215 95.3848 77.5215C95.5573 77.5215 95.7624 77.4759 96 77.3848C96.2409 77.2936 96.4281 77.1813 96.5615 77.0479ZM98.8906 73.6299C98.8906 73.2555 98.9606 72.904 99.1006 72.5752C99.2406 72.2464 99.4342 71.9583 99.6816 71.7109C99.929 71.4635 100.217 71.2699 100.546 71.1299C100.875 70.9899 101.226 70.9199 101.601 70.9199C101.975 70.9199 102.326 70.9899 102.655 71.1299C102.987 71.2699 103.275 71.4635 103.52 71.7109C103.767 71.9583 103.961 72.2464 104.101 72.5752C104.241 72.904 104.311 73.2555 104.311 73.6299C104.311 74.0042 104.241 74.3558 104.101 74.6846C103.961 75.0133 103.767 75.3014 103.52 75.5488C103.275 75.7962 102.987 75.9899 102.655 76.1299C102.326 76.2699 101.975 76.3398 101.601 76.3398C101.226 76.3398 100.875 76.2699 100.546 76.1299C100.217 75.9899 99.929 75.7962 99.6816 75.5488C99.4342 75.3014 99.2406 75.0133 99.1006 74.6846C98.9606 74.3558 98.8906 74.0042 98.8906 73.6299ZM99.1396 73.6299C99.1396 74.0824 99.2503 74.4958 99.4717 74.8701C99.693 75.2445 99.9893 75.5423 100.36 75.7637C100.735 75.9818 101.148 76.0908 101.601 76.0908C102.053 76.0908 102.466 75.9818 102.841 75.7637C103.215 75.5423 103.511 75.2445 103.729 74.8701C103.951 74.4958 104.062 74.0824 104.062 73.6299C104.062 73.1774 103.951 72.764 103.729 72.3896C103.511 72.0153 103.215 71.7191 102.841 71.501C102.466 71.2796 102.053 71.1689 101.601 71.1689C101.148 71.1689 100.735 71.2796 100.36 71.501C99.9893 71.7191 99.693 72.0153 99.4717 72.3896C99.2503 72.764 99.1396 73.1774 99.1396 73.6299ZM102.934 72.6582H102.851C102.75 72.4303 102.606 72.266 102.421 72.165C102.235 72.0609 102.019 72.0088 101.771 72.0088C101.592 72.0088 101.413 72.0365 101.234 72.0918C101.059 72.1439 100.904 72.2269 100.771 72.3408C100.591 72.4938 100.468 72.6842 100.399 72.9121C100.334 73.1367 100.302 73.3597 100.302 73.5811C100.302 73.8089 100.357 74.0335 100.468 74.2549C100.578 74.473 100.683 74.6211 100.78 74.6992C100.946 74.8392 101.106 74.945 101.259 75.0166C101.415 75.085 101.615 75.1191 101.859 75.1191C102.064 75.1191 102.261 75.0866 102.45 75.0215C102.639 74.9531 102.816 74.8734 102.982 74.7822L103.08 74.9189C102.865 75.0394 102.637 75.1468 102.396 75.2412C102.159 75.3324 101.91 75.3779 101.649 75.3779C101.409 75.3779 101.173 75.3503 100.941 75.2949C100.714 75.2396 100.513 75.1419 100.341 75.002C100.136 74.8294 99.9876 74.626 99.8965 74.3916C99.8053 74.1572 99.7598 73.9163 99.7598 73.6689C99.7598 73.4281 99.7988 73.1921 99.877 72.9609C99.9583 72.7266 100.103 72.5231 100.312 72.3506C100.533 72.1715 100.788 72.0365 101.078 71.9453C101.368 71.8542 101.669 71.8086 101.981 71.8086C102.242 71.8086 102.483 71.8493 102.704 71.9307C102.929 72.0088 103.118 72.1553 103.271 72.3701L102.934 72.6582ZM109.481 77.1992L109.252 77.9805H104.882V77.8193C105.168 77.5264 105.45 77.2318 105.727 76.9355C106.003 76.6393 106.275 76.3382 106.542 76.0322C106.802 75.7262 107.05 75.4105 107.284 75.085C107.522 74.7562 107.717 74.4111 107.87 74.0498C108.023 73.6885 108.1 73.3125 108.1 72.9219C108.1 72.7493 108.064 72.5589 107.992 72.3506C107.924 72.1423 107.808 71.9648 107.646 71.8184C107.483 71.6719 107.258 71.5986 106.972 71.5986C106.698 71.5986 106.449 71.6654 106.225 71.7988C106 71.9323 105.792 72.0788 105.6 72.2383L105.399 72.0479C105.673 71.7484 105.987 71.4863 106.342 71.2617C106.7 71.0339 107.089 70.9199 107.509 70.9199C107.802 70.9199 108.062 70.9883 108.29 71.125C108.518 71.2617 108.695 71.4473 108.822 71.6816C108.952 71.9128 109.018 72.1748 109.018 72.4678C109.018 72.7347 108.97 72.9902 108.876 73.2344C108.785 73.4785 108.673 73.7178 108.539 73.9521C108.246 74.486 107.893 75.0068 107.479 75.5146C107.066 76.0192 106.649 76.5173 106.229 77.0088C106.216 77.0218 106.21 77.0348 106.21 77.0479C106.21 77.0739 106.225 77.0934 106.254 77.1064C106.283 77.1162 106.312 77.1211 106.342 77.1211H109.428L109.481 77.1992ZM112.66 70.959C113.067 71.2129 113.393 71.5286 113.637 71.9062C113.884 72.2806 114.066 72.6859 114.184 73.1221C114.301 73.555 114.359 73.9945 114.359 74.4404C114.359 74.8408 114.312 75.2559 114.218 75.6855C114.127 76.1152 113.982 76.5156 113.783 76.8867C113.588 77.2546 113.327 77.5557 113.002 77.79C112.68 78.0244 112.289 78.1416 111.83 78.1416C111.544 78.1416 111.298 78.07 111.093 77.9268C110.891 77.7835 110.725 77.5931 110.595 77.3555C110.465 77.1178 110.362 76.859 110.287 76.5791C110.215 76.2992 110.167 76.0176 110.141 75.7344C110.115 75.4512 110.102 75.1956 110.102 74.9678C110.102 74.3688 110.211 73.7829 110.429 73.21C110.65 72.637 110.974 72.1374 111.4 71.7109C111.566 71.5449 111.762 71.4001 111.986 71.2764C112.214 71.1527 112.439 71.0469 112.66 70.959ZM112.099 71.5986C111.806 71.7777 111.56 72.0153 111.361 72.3115C111.166 72.6045 111.018 72.9235 110.917 73.2686C110.819 73.6104 110.771 73.9505 110.771 74.2891C110.771 74.5755 110.785 74.8652 110.814 75.1582C110.844 75.4512 110.899 75.7344 110.98 76.0078C111.046 76.2357 111.14 76.4635 111.264 76.6914C111.387 76.916 111.534 77.1048 111.703 77.2578C111.876 77.4076 112.068 77.4824 112.279 77.4824C112.585 77.4824 112.833 77.4076 113.021 77.2578C113.214 77.1048 113.362 76.9111 113.466 76.6768C113.57 76.4391 113.642 76.1852 113.681 75.915C113.72 75.6449 113.739 75.3893 113.739 75.1484C113.739 74.696 113.681 74.2581 113.563 73.835C113.446 73.4118 113.279 73.0033 113.061 72.6094C113.041 72.5703 112.982 72.4808 112.885 72.3408C112.787 72.2008 112.67 72.0576 112.533 71.9111C112.396 71.7614 112.252 71.6572 112.099 71.5986ZM119.481 77.1992L119.252 77.9805H114.882V77.8193C115.168 77.5264 115.45 77.2318 115.727 76.9355C116.003 76.6393 116.275 76.3382 116.542 76.0322C116.802 75.7262 117.05 75.4105 117.284 75.085C117.522 74.7562 117.717 74.4111 117.87 74.0498C118.023 73.6885 118.1 73.3125 118.1 72.9219C118.1 72.7493 118.064 72.5589 117.992 72.3506C117.924 72.1423 117.808 71.9648 117.646 71.8184C117.483 71.6719 117.258 71.5986 116.972 71.5986C116.698 71.5986 116.449 71.6654 116.225 71.7988C116 71.9323 115.792 72.0788 115.6 72.2383L115.399 72.0479C115.673 71.7484 115.987 71.4863 116.342 71.2617C116.7 71.0339 117.089 70.9199 117.509 70.9199C117.802 70.9199 118.062 70.9883 118.29 71.125C118.518 71.2617 118.695 71.4473 118.822 71.6816C118.952 71.9128 119.018 72.1748 119.018 72.4678C119.018 72.7347 118.97 72.9902 118.876 73.2344C118.785 73.4785 118.673 73.7178 118.539 73.9521C118.246 74.486 117.893 75.0068 117.479 75.5146C117.066 76.0192 116.649 76.5173 116.229 77.0088C116.216 77.0218 116.21 77.0348 116.21 77.0479C116.21 77.0739 116.225 77.0934 116.254 77.1064C116.283 77.1162 116.312 77.1211 116.342 77.1211H119.428L119.481 77.1992ZM122.841 70.8809L122.899 70.998C122.873 71.444 122.855 71.8916 122.846 72.3408C122.836 72.7868 122.831 73.2327 122.831 73.6787C122.831 74.0173 122.831 74.3851 122.831 74.7822C122.831 75.1794 122.833 75.57 122.836 75.9541C122.839 76.3382 122.842 76.6914 122.846 77.0137C122.849 77.3327 122.854 77.5882 122.86 77.7803L122.021 78.0488L121.898 78C121.924 77.3066 121.944 76.61 121.957 75.9102C121.973 75.2103 121.981 74.5104 121.981 73.8105C121.981 73.4362 121.985 73.1042 121.991 72.8145C121.998 72.5247 121.97 72.2969 121.908 72.1309C121.85 71.9648 121.716 71.8818 121.508 71.8818H120.678V71.6084L122.841 70.8809Z" fill="#616161"/>
<g filter="url(#filter0_d_309:39)">
<path d="M95.1363 15.1745C95.2282 14.9211 95.0875 14.6375 94.8219 14.5412L90.4938 12.971C90.2282 12.8746 89.9383 13.002 89.8464 13.2554C89.7544 13.5088 89.8952 13.7924 90.1608 13.8887L94.008 15.2845L92.6761 18.9556C92.5842 19.209 92.725 19.4926 92.9906 19.589C93.2561 19.6853 93.546 19.558 93.6379 19.3045L95.1363 15.1745ZM75.191 24.0971L94.8777 15.4479L94.4331 14.5522L74.7463 23.2013L75.191 24.0971Z" fill="#616161"/>
</g>
<g filter="url(#filter1_d_309:39)">
<path d="M36.871 7.2C38.679 7.2 40.047 7.672 40.975 8.616C41.919 9.544 42.391 10.912 42.391 12.72V18.48C42.391 20.288 41.919 21.664 40.975 22.608C40.047 23.536 38.679 24 36.871 24H27.511V7.2H36.871ZM38.071 12.72C38.071 11.28 37.351 10.56 35.911 10.56H31.831V20.64H35.911C37.351 20.64 38.071 19.92 38.071 18.48V12.72ZM49.4645 14.04C48.8245 14.04 48.5045 14.36 48.5045 15V16.32H52.5845V15C52.5845 14.36 52.2645 14.04 51.6245 14.04H49.4645ZM56.3045 23.76C53.2165 24.08 50.4165 24.24 47.9045 24.24C46.8165 24.24 45.9445 23.912 45.2885 23.256C44.6325 22.6 44.3045 21.728 44.3045 20.64V14.88C44.3045 13.68 44.6405 12.744 45.3125 12.072C46.0005 11.384 46.9445 11.04 48.1445 11.04H52.9445C54.1445 11.04 55.0805 11.384 55.7525 12.072C56.4405 12.744 56.7845 13.68 56.7845 14.88V19.32H48.5045V20.28C48.5045 20.52 48.5845 20.72 48.7445 20.88C48.9045 21.04 49.1045 21.12 49.3445 21.12C50.9285 21.12 53.2485 21 56.3045 20.76V23.76ZM67.2207 11.28H71.6607L66.8607 24H62.0607L57.2607 11.28H61.7007L64.4607 19.92L67.2207 11.28Z" fill="#616161"/>
</g>
<g filter="url(#filter2_d_309:39)">
<path d="M9.44 27.2001H19.04C20.608 27.2001 21.76 27.5601 22.496 28.2801C23.232 28.9841 23.6 30.0641 23.6 31.5201C23.6 32.4801 23.392 33.2641 22.976 33.8721C22.56 34.4641 22.048 34.8801 21.44 35.1201C22.736 35.4721 23.616 36.3361 24.08 37.7121C24.24 38.2081 24.32 38.7841 24.32 39.4401C24.32 41.0081 23.952 42.1601 23.216 42.8961C22.48 43.6321 21.328 44.0001 19.76 44.0001H9.44V27.2001ZM20 38.7201C20 37.7601 19.52 37.2801 18.56 37.2801H13.76V40.6401H18.56C19.52 40.6401 20 40.1601 20 39.2001V38.7201ZM19.28 32.0001C19.28 31.0401 18.8 30.5601 17.84 30.5601H13.76V33.9201H17.84C18.8 33.9201 19.28 33.4401 19.28 32.4801V32.0001ZM39.1991 40.4001C39.1991 41.6001 38.8551 42.5441 38.1671 43.2321C37.4951 43.9041 36.5591 44.2401 35.3591 44.2401H29.8391C28.6391 44.2401 27.6951 43.9041 27.0071 43.2321C26.3351 42.5441 25.9991 41.6001 25.9991 40.4001V34.8801C25.9991 33.6801 26.3351 32.7441 27.0071 32.0721C27.6951 31.3841 28.6391 31.0401 29.8391 31.0401H35.3591C36.5591 31.0401 37.4951 31.3841 38.1671 32.0721C38.8551 32.7441 39.1991 33.6801 39.1991 34.8801V40.4001ZM34.9991 35.2401C34.9991 34.6001 34.6791 34.2801 34.0391 34.2801H31.1591C30.5191 34.2801 30.1991 34.6001 30.1991 35.2401V40.0401C30.1991 40.6801 30.5191 41.0001 31.1591 41.0001H34.0391C34.6791 41.0001 34.9991 40.6801 34.9991 40.0401V35.2401ZM47.2363 40.7601C48.0843 40.7601 49.0443 40.6001 50.1163 40.2801V31.2801H54.3163V44.0001H50.5963L50.3563 42.8001C49.6043 43.2961 48.8283 43.6641 48.0283 43.9041C47.2443 44.1281 46.5803 44.2401 46.0363 44.2401H44.9563C43.8683 44.2401 42.9963 43.9121 42.3403 43.2561C41.6843 42.6001 41.3563 41.7281 41.3563 40.6401V31.2801H45.5563V39.9201C45.5563 40.1601 45.6363 40.3601 45.7963 40.5201C45.9563 40.6801 46.1563 40.7601 46.3963 40.7601H47.2363ZM64.0278 34.7601C63.0198 34.7601 61.9798 35.0001 60.9078 35.4801V44.0001H56.7078V31.2801H60.4278L60.6678 32.8401C62.0438 31.6401 63.4838 31.0401 64.9878 31.0401H66.0678V34.7601H64.0278ZM71.9469 31.5201C73.4989 31.2001 74.8589 31.0401 76.0269 31.0401H77.1069C78.1949 31.0401 79.0669 31.3681 79.7229 32.0241C80.3789 32.6801 80.7069 33.5521 80.7069 34.6401V44.0001H76.5069V35.1201C76.5069 34.8801 76.4269 34.6801 76.2669 34.5201C76.1069 34.3601 75.9069 34.2801 75.6669 34.2801H74.8269C74.2189 34.2801 73.6589 34.3121 73.1469 34.3761C72.6509 34.4401 72.2509 34.4881 71.9469 34.5201V44.0001H67.7469V27.2001H71.9469V31.5201ZM87.7841 34.0401C87.1441 34.0401 86.8241 34.3601 86.8241 35.0001V36.3201H90.9041V35.0001C90.9041 34.3601 90.5841 34.0401 89.9441 34.0401H87.7841ZM94.6241 43.7601C91.5361 44.0801 88.7361 44.2401 86.2241 44.2401C85.1361 44.2401 84.2641 43.9121 83.6081 43.2561C82.9521 42.6001 82.6241 41.7281 82.6241 40.6401V34.8801C82.6241 33.6801 82.9601 32.7441 83.6321 32.0721C84.3201 31.3841 85.2641 31.0401 86.4641 31.0401H91.2641C92.4641 31.0401 93.4001 31.3841 94.0721 32.0721C94.7601 32.7441 95.1041 33.6801 95.1041 34.8801V39.3201H86.8241V40.2801C86.8241 40.5201 86.9041 40.7201 87.0641 40.8801C87.2241 41.0401 87.4241 41.1201 87.6641 41.1201C89.2481 41.1201 91.5681 41.0001 94.6241 40.7601V43.7601ZM102.175 34.0401C101.535 34.0401 101.215 34.3601 101.215 35.0001V36.3201H105.295V35.0001C105.295 34.3601 104.975 34.0401 104.335 34.0401H102.175ZM109.015 43.7601C105.927 44.0801 103.127 44.2401 100.615 44.2401C99.5267 44.2401 98.6547 43.9121 97.9987 43.2561C97.3427 42.6001 97.0147 41.7281 97.0147 40.6401V34.8801C97.0147 33.6801 97.3507 32.7441 98.0227 32.0721C98.7107 31.3841 99.6547 31.0401 100.855 31.0401H105.655C106.855 31.0401 107.791 31.3841 108.463 32.0721C109.151 32.7441 109.495 33.6801 109.495 34.8801V39.3201H101.215V40.2801C101.215 40.5201 101.295 40.7201 101.455 40.8801C101.615 41.0401 101.815 41.1201 102.055 41.1201C103.639 41.1201 105.959 41.0001 109.015 40.7601V43.7601ZM120.165 31.0401C121.461 31.0401 122.461 31.5201 123.165 32.4801C123.901 31.9841 124.693 31.6241 125.541 31.4001C126.405 31.1601 127.173 31.0401 127.845 31.0401H128.085C129.173 31.0401 130.045 31.3681 130.701 32.0241C131.357 32.6801 131.685 33.5521 131.685 34.6401V44.0001H127.485V35.3601C127.485 35.1201 127.405 34.9201 127.245 34.7601C127.085 34.6001 126.885 34.5201 126.645 34.5201H126.525C125.805 34.5201 124.885 34.6801 123.765 35.0001V44.0001H119.565V35.3601C119.565 35.1201 119.485 34.9201 119.325 34.7601C119.165 34.6001 118.965 34.5201 118.725 34.5201H118.605C117.885 34.5201 116.965 34.6801 115.845 35.0001V44.0001H111.645V31.2801H115.365L115.605 32.4801C116.357 31.9841 117.125 31.6241 117.909 31.4001C118.709 31.1601 119.381 31.0401 119.925 31.0401H120.165Z" fill="#616161"/>
</g>
<g filter="url(#filter3_d_309:39)">
<path d="M107.532 8.14282L108.501 9.99582L110.674 10.2908C110.897 10.3208 110.986 10.5788 110.825 10.7258L109.253 12.1658L109.625 14.2018C109.634 14.2487 109.628 14.297 109.609 14.3411C109.59 14.3852 109.558 14.4234 109.517 14.4514C109.476 14.4794 109.428 14.496 109.377 14.4995C109.327 14.5029 109.276 14.493 109.232 14.4708L107.289 13.5088L105.346 14.4708C105.302 14.493 105.251 14.5029 105.201 14.4995C105.15 14.496 105.102 14.4794 105.061 14.4514C105.02 14.4234 104.988 14.3852 104.969 14.3411C104.95 14.297 104.945 14.2487 104.953 14.2018L105.325 12.1668L103.752 10.7268C103.715 10.6936 103.689 10.6514 103.677 10.605C103.665 10.5586 103.667 10.5099 103.683 10.4644C103.698 10.419 103.727 10.3786 103.766 10.3479C103.805 10.3172 103.853 10.2974 103.903 10.2908L106.076 9.99582L107.045 8.14282C107.067 8.09997 107.102 8.06388 107.145 8.03863C107.188 8.01338 107.238 8 107.289 8C107.339 8 107.389 8.01338 107.432 8.03863C107.475 8.06388 107.51 8.09997 107.532 8.14282V8.14282Z" fill="#616161"/>
</g>
<g filter="url(#filter4_d_309:39)">
<path d="M114.299 12.001C114.299 10.8528 113.999 9.72222 113.426 8.70886C112.852 7.6955 112.022 6.83049 111.009 6.19006C109.996 5.54964 108.831 5.15346 107.617 5.03645C106.402 4.91943 105.176 5.08518 104.046 5.51908C102.916 5.95297 101.917 6.6417 101.137 7.52455C100.357 8.4074 99.819 9.45727 99.5717 10.5816C99.3244 11.706 99.3749 12.8703 99.7187 13.972C100.063 15.0737 100.689 16.0789 101.543 16.899V24.251L101.552 24.356C101.571 24.4832 101.624 24.6037 101.707 24.7059C101.79 24.8081 101.899 24.8886 102.025 24.9396C102.15 24.9906 102.287 25.0104 102.423 24.9972C102.559 24.9839 102.689 24.9381 102.801 24.864L106.857 22.177L110.917 24.865L111.011 24.919C111.133 24.9776 111.269 25.0058 111.405 25.001C111.542 24.9961 111.674 24.9583 111.791 24.8913C111.908 24.8242 112.004 24.7301 112.071 24.618C112.137 24.5059 112.172 24.3795 112.172 24.251L112.174 16.899C113.539 15.592 114.302 13.8328 114.299 12.001V12.001ZM110.579 18.065V22.806L107.315 20.646L107.209 20.586C107.081 20.5266 106.938 20.5008 106.795 20.5113C106.652 20.5219 106.515 20.5684 106.398 20.646L103.139 22.806V18.065C104.269 18.6799 105.552 19.0028 106.858 19.001C108.214 19.001 109.484 18.661 110.579 18.065ZM101.012 12.001C101.012 10.5423 101.628 9.14334 102.724 8.11189C103.821 7.08044 105.308 6.50098 106.858 6.50098C108.409 6.50098 109.896 7.08044 110.992 8.11189C112.089 9.14334 112.705 10.5423 112.705 12.001C112.705 13.4597 112.089 14.8586 110.992 15.8901C109.896 16.9215 108.409 17.501 106.858 17.501C105.308 17.501 103.821 16.9215 102.724 15.8901C101.628 14.8586 101.012 13.4597 101.012 12.001V12.001Z" fill="#616161"/>
</g>
<defs>
<filter id="filter0_d_309:39" x="70.7463" y="12.9388" width="28.4181" height="19.1583" filterUnits="userSpaceOnUse" color-interpolation-filters="sRGB">
<feFlood flood-opacity="0" result="BackgroundImageFix"/>
<feColorMatrix in="SourceAlpha" type="matrix" values="0 0 0 0 0 0 0 0 0 0 0 0 0 0 0 0 0 0 127 0" result="hardAlpha"/>
<feOffset dy="4"/>
<feGaussianBlur stdDeviation="2"/>
<feColorMatrix type="matrix" values="0 0 0 0 0 0 0 0 0 0 0 0 0 0 0 0 0 0 0.25 0"/>
<feBlend mode="normal" in2="BackgroundImageFix" result="effect1_dropShadow_309:39"/>
<feBlend mode="normal" in="SourceGraphic" in2="effect1_dropShadow_309:39" result="shape"/>
</filter>
<filter id="filter1_d_309:39" x="23.511" y="7.2" width="52.1498" height="25.04" filterUnits="userSpaceOnUse" color-interpolation-filters="sRGB">
<feFlood flood-opacity="0" result="BackgroundImageFix"/>
<feColorMatrix in="SourceAlpha" type="matrix" values="0 0 0 0 0 0 0 0 0 0 0 0 0 0 0 0 0 0 127 0" result="hardAlpha"/>
<feOffset dy="4"/>
<feGaussianBlur stdDeviation="2"/>
<feColorMatrix type="matrix" values="0 0 0 0 0 0 0 0 0 0 0 0 0 0 0 0 0 0 0.25 0"/>
<feBlend mode="normal" in2="BackgroundImageFix" result="effect1_dropShadow_309:39"/>
<feBlend mode="normal" in="SourceGraphic" in2="effect1_dropShadow_309:39" result="shape"/>
</filter>
<filter id="filter2_d_309:39" x="5.43994" y="27.2001" width="130.245" height="25.04" filterUnits="userSpaceOnUse" color-interpolation-filters="sRGB">
<feFlood flood-opacity="0" result="BackgroundImageFix"/>
<feColorMatrix in="SourceAlpha" type="matrix" values="0 0 0 0 0 0 0 0 0 0 0 0 0 0 0 0 0 0 127 0" result="hardAlpha"/>
<feOffset dy="4"/>
<feGaussianBlur stdDeviation="2"/>
<feColorMatrix type="matrix" values="0 0 0 0 0 0 0 0 0 0 0 0 0 0 0 0 0 0 0.25 0"/>
<feBlend mode="normal" in2="BackgroundImageFix" result="effect1_dropShadow_309:39"/>
<feBlend mode="normal" in="SourceGraphic" in2="effect1_dropShadow_309:39" result="shape"/>
</filter>
<filter id="filter3_d_309:39" x="99.6692" y="8" width="15.2379" height="14.5001" filterUnits="userSpaceOnUse" color-interpolation-filters="sRGB">
<feFlood flood-opacity="0" result="BackgroundImageFix"/>
<feColorMatrix in="SourceAlpha" type="matrix" values="0 0 0 0 0 0 0 0 0 0 0 0 0 0 0 0 0 0 127 0" result="hardAlpha"/>
<feOffset dy="4"/>
<feGaussianBlur stdDeviation="2"/>
<feColorMatrix type="matrix" values="0 0 0 0 0 0 0 0 0 0 0 0 0 0 0 0 0 0 0.25 0"/>
<feBlend mode="normal" in2="BackgroundImageFix" result="effect1_dropShadow_309:39"/>
<feBlend mode="normal" in="SourceGraphic" in2="effect1_dropShadow_309:39" result="shape"/>
</filter>
<filter id="filter4_d_309:39" x="95.4174" y="5" width="22.8819" height="28.0015" filterUnits="userSpaceOnUse" color-interpolation-filters="sRGB">
<feFlood flood-opacity="0" result="BackgroundImageFix"/>
<feColorMatrix in="SourceAlpha" type="matrix" values="0 0 0 0 0 0 0 0 0 0 0 0 0 0 0 0 0 0 127 0" result="hardAlpha"/>
<feOffset dy="4"/>
<feGaussianBlur stdDeviation="2"/>
<feColorMatrix type="matrix" values="0 0 0 0 0 0 0 0 0 0 0 0 0 0 0 0 0 0 0.25 0"/>
<feBlend mode="normal" in2="BackgroundImageFix" result="effect1_dropShadow_309:39"/>
<feBlend mode="normal" in="SourceGraphic" in2="effect1_dropShadow_309:39" result="shape"/>
</filter>
</defs>
</svg>
